<svg width="17" height="24" viewBox="0 0 17 24" fill="none" xmlns="http://www.w3.org/2000/svg">
<path d="M0.425 20.8907L5.08455 23.8627C5.2247 23.9527 5.38638 24.0003 5.55127 24H11.4487C11.6135 24.0003 11.7751 23.9527 11.9151 23.8627L16.575 20.8911C16.7043 20.8084 16.8112 20.6929 16.8856 20.5556C16.9599 20.4183 16.9993 20.2636 17 20.1061V11.0424C16.9997 10.8375 16.9338 10.6386 16.8126 10.4768L9.20164 0.338651C9.11561 0.232591 9.00823 0.147319 8.88702 0.0888168C8.76581 0.0303147 8.63372 0 8.5 0C8.36628 0 8.23419 0.0303147 8.11298 0.0888168C7.99177 0.147319 7.88439 0.232591 7.79836 0.338651L0.187386 10.4768C0.066206 10.6386 0.000298891 10.8375 0 11.0424V20.1061C0.000728632 20.2635 0.0401266 20.4181 0.114481 20.5554C0.188836 20.6927 0.295699 20.808 0.425 20.8907V20.8907ZM3.09091 12.2472V18.3786L0.772727 19.7859V11.399L3.09091 12.2472ZM8.5 5.92286L13.1364 12.0999V18.3842L10.6065 19.9973H6.39509L3.86364 18.3846V12.0999L8.5 5.92286ZM16.2273 11.399V19.7859L13.9091 18.3786V12.2472L16.2273 11.399ZM13.527 19.0766L15.793 20.452L11.8378 22.9737L11.1702 20.5797L13.527 19.0766ZM6.57243 20.7978H10.4268L11.0964 23.1995H5.90325L6.57243 20.7978ZM5.82945 20.5781L5.16182 22.9721L1.20661 20.4504L3.47302 19.0766L5.82945 20.5781ZM15.9615 10.6469L13.6572 11.4899L8.88636 5.13472V1.22446L15.9615 10.6469ZM8.11364 1.22446V5.13592L3.34282 11.4899L1.03855 10.6469L8.11364 1.22446Z" fill="white"/>
<path d="M5.79554 12.3921C5.85553 12.3921 5.91468 12.3777 5.96833 12.3499C6.02198 12.3221 6.06865 12.2817 6.10463 12.232L7.26373 10.6309C7.29417 10.5889 7.31632 10.541 7.32891 10.4901C7.3415 10.4392 7.34429 10.3862 7.33712 10.3341C7.32994 10.2821 7.31294 10.232 7.28709 10.1868C7.26124 10.1416 7.22704 10.1021 7.18645 10.0705C7.14586 10.039 7.09967 10.016 7.05052 10.003C7.00137 9.98996 6.95022 9.98707 6.89999 9.9945C6.84977 10.0019 6.80144 10.0195 6.75779 10.0463C6.71413 10.0731 6.67599 10.1085 6.64554 10.1506L5.48645 11.7517C5.4434 11.8112 5.41718 11.8819 5.41074 11.9559C5.4043 12.0299 5.41788 12.1044 5.44997 12.1709C5.48206 12.2373 5.53138 12.2933 5.59242 12.3323C5.65346 12.3714 5.72379 12.3921 5.79554 12.3921V12.3921Z" fill="white"/>
<path d="M6.33643 13.9132C6.41841 13.9769 6.52145 14.0042 6.62289 13.9892C6.72433 13.9742 6.81586 13.918 6.87734 13.8331L9.19553 10.6309C9.22597 10.5889 9.24812 10.541 9.26071 10.4901C9.2733 10.4392 9.27609 10.3862 9.26892 10.3341C9.26174 10.2821 9.24474 10.232 9.21889 10.1868C9.19304 10.1416 9.15884 10.1021 9.11825 10.0705C9.07766 10.039 9.03147 10.016 8.98232 10.003C8.93317 9.98996 8.88202 9.98707 8.83179 9.9945C8.78157 10.0019 8.73324 10.0195 8.68958 10.0463C8.64593 10.0731 8.60779 10.1085 8.57734 10.1506L6.25916 13.3528C6.19768 13.4377 6.17128 13.5445 6.18577 13.6495C6.20026 13.7546 6.25446 13.8495 6.33643 13.9132V13.9132Z" fill="white"/>
</svg>
