<svg width="20" height="24" viewBox="0 0 20 24" fill="none" xmlns="http://www.w3.org/2000/svg">
<path d="M19.0951 11.0213L16.0887 7.74159C15.7383 7.35937 15.24 7.14014 14.7214 7.14014H4.76992C4.25139 7.14014 3.75306 7.35937 3.40267 7.74159L0.396295 11.0213C-0.108596 11.5721 -0.134049 12.4248 0.337139 13.0047L8.97123 23.6313C9.16159 23.8656 9.44383 23.9999 9.74565 23.9999C10.0475 23.9999 10.3297 23.8656 10.5201 23.6313L19.1542 13.0047C19.6254 12.4247 19.6 11.5721 19.0951 11.0213ZM14.8872 7.85559L14.0869 10.203C14.0243 10.3868 14.1225 10.5866 14.3063 10.6492C14.3439 10.662 14.3821 10.6681 14.4197 10.6681C14.566 10.6681 14.7026 10.5761 14.7524 10.4299L15.5233 8.16857C15.5394 8.18418 15.5552 8.20012 15.5703 8.21667L18.5767 11.4964C18.6201 11.5436 18.6561 11.5954 18.6862 11.6497H14.0341L10.5448 7.84322H14.7214C14.7772 7.84326 14.8326 7.84757 14.8872 7.85559ZM13.0803 11.6497H6.41101L9.74565 8.01196L13.0803 11.6497ZM8.94648 7.84326L5.7782 11.2995L4.60412 7.85559C4.65873 7.84762 4.71409 7.84326 4.76987 7.84326H8.94648ZM3.92097 8.21672C3.93615 8.20012 3.9519 8.18418 3.96798 8.16862L5.15472 11.6497H0.805092C0.835232 11.5955 0.871232 11.5437 0.914592 11.4964L3.92097 8.21672ZM0.761029 12.3528H13.354L9.74565 22.9374L6.54175 13.5393C6.47912 13.3555 6.27939 13.2573 6.09554 13.3199C5.91175 13.3826 5.81354 13.5824 5.87622 13.7662L8.77825 22.2788L0.882811 12.5613C0.830732 12.4972 0.790607 12.4267 0.761029 12.3528ZM10.713 22.2788L14.0969 12.3528H18.7303C18.7007 12.4267 18.6606 12.4972 18.6085 12.5613L10.713 22.2788Z" fill="white"/>
<path d="M9.74567 5.58853C9.93982 5.58853 10.0972 5.43112 10.0972 5.23697V0.351562C10.0972 0.157406 9.93982 0 9.74567 0C9.55151 0 9.3941 0.157406 9.3941 0.351562V5.23697C9.3941 5.43112 9.55151 5.58853 9.74567 5.58853Z" fill="white"/>
<path d="M6.049 5.76992C6.11059 5.89311 6.23472 5.96436 6.36372 5.96436C6.41655 5.96436 6.47017 5.95241 6.52066 5.92714C6.69433 5.84028 6.76473 5.62916 6.67788 5.45549L5.17469 2.44906C5.08787 2.27539 4.8767 2.20499 4.70303 2.29185C4.52936 2.3787 4.45895 2.58983 4.54581 2.7635L6.049 5.76992Z" fill="white"/>
<path d="M12.9707 5.92714C13.0212 5.95241 13.0748 5.96436 13.1276 5.96436C13.2566 5.96436 13.3807 5.89311 13.4423 5.76992L14.9455 2.7635C15.0324 2.58983 14.962 2.3787 14.7883 2.29185C14.6146 2.20499 14.4035 2.27539 14.3166 2.44906L12.8135 5.45549C12.7266 5.62916 12.797 5.84033 12.9707 5.92714Z" fill="white"/>
</svg>
