<svg width="19" height="24" viewBox="0 0 19 24" fill="none" xmlns="http://www.w3.org/2000/svg">
<path d="M18.4 20.4V3.6C18.4 1.8548 15.1756 0 9.2 0C3.2244 0 0 1.8548 0 3.6V20.4C0 22.1452 3.2244 24 9.2 24C15.1756 24 18.4 22.1452 18.4 20.4ZM17.6 9.2C17.6 10.5244 14.1504 12 9.2 12C4.2496 12 0.8 10.5244 0.8 9.2V5.0872C2.0944 6.2588 4.9456 7.2 9.2 7.2C13.4544 7.2 16.3056 6.2588 17.6 5.0872V9.2ZM0.8 10.6872C2.0944 11.8588 4.9456 12.8 9.2 12.8C13.4544 12.8 16.3056 11.8588 17.6 10.6872V15.2C17.6 16.5244 14.1504 18 9.2 18C4.2496 18 0.8 16.5244 0.8 15.2V10.6872ZM9.2 0.8C14.1504 0.8 17.6 2.2756 17.6 3.6C17.6 4.9244 14.1504 6.4 9.2 6.4C4.2496 6.4 0.8 4.9244 0.8 3.6C0.8 2.2756 4.2496 0.8 9.2 0.8ZM0.8 20.4V16.6872C2.0944 17.8588 4.9456 18.8 9.2 18.8C13.4544 18.8 16.3056 17.8588 17.6 16.6872V20.4C17.6 21.7244 14.1504 23.2 9.2 23.2C4.2496 23.2 0.8 21.7244 0.8 20.4Z" fill="white"/>
</svg>
