<svg width="24" height="24" viewBox="0 0 24 24" fill="none" xmlns="http://www.w3.org/2000/svg">
<path d="M16.0185 14.9581C15.6563 16.0326 15.7087 17.0044 16.1738 17.8467C16.6168 18.6486 17.4455 19.339 18.6367 19.8987C19.2774 20.1997 19.9308 20.2372 20.5262 20.0069C21.065 19.7985 21.5014 19.3893 21.755 18.8547C21.8958 18.5578 21.9748 18.2234 21.9748 17.8779C21.9747 17.0261 21.4942 16.1079 20.2758 15.5243L17.6137 14.25C17.1891 14.0461 16.8649 14.1025 16.6676 14.1857C16.371 14.3108 16.1465 14.5779 16.0185 14.9581ZM17.3098 14.884L19.9723 16.1586C21.2576 16.7741 21.4748 17.8049 21.1198 18.5533C20.7854 19.2584 19.9278 19.7284 18.9357 19.2623C17.2969 18.4923 16.4874 17.5137 16.4874 16.2904C16.4874 15.9413 16.5533 15.5723 16.6847 15.1826L16.6847 15.1826C16.7457 15.0015 16.8367 14.8775 16.9409 14.8335C17.0341 14.7942 17.1581 14.8111 17.3098 14.884Z" fill="white"/>
<path d="M16.0186 14.9583L16.0186 14.9573L16.0196 14.9573L16.0186 14.9583Z" fill="white"/>
<path d="M19.9187 1.94665C18.1665 2.00037 16.3562 2.89034 15.1943 4.26935C14.4379 5.16701 13.5988 6.68065 13.8961 8.7956C13.9959 9.50402 13.8181 9.82207 13.1356 10.1508L9.85965 8.60988C9.68396 8.52724 9.47457 8.60271 9.39197 8.7784C9.30938 8.95413 9.3848 9.16352 9.56044 9.24621L12.317 10.5428L10.0531 11.6267L1.3283 7.45142L0.772783 7.18624C0.863955 7.09559 1.04077 6.96621 1.32169 6.84898C1.7258 6.68023 3.20611 6.20571 5.28539 7.1824L8.18232 8.56563C8.35754 8.64926 8.56735 8.57505 8.65097 8.39984C8.7346 8.22462 8.6604 8.01476 8.48522 7.93109L5.58628 6.54692C2.77163 5.22485 0.462798 6.13821 0.065439 6.97802C-0.0822173 7.29021 0.0261109 7.6091 0.328783 7.75338L1.02521 8.08582L9.23888 12.0165L1.09589 15.9151L0.397455 16.2478C0.0950175 16.3923 -0.0129825 16.7111 0.134814 17.0229C0.532502 17.8624 2.84142 18.7751 5.65702 17.452L8.40427 16.1417C8.57949 16.0582 8.65383 15.8483 8.57026 15.6731C8.48668 15.4978 8.27686 15.4235 8.10165 15.5071L5.35622 16.8166C3.27591 17.7941 1.79564 17.3202 1.39153 17.1517C1.11071 17.0346 0.933752 16.9053 0.842393 16.8147L1.39885 16.5496L13.4317 10.7886C13.5532 10.7305 13.6647 10.67 13.7665 10.6069L14.6541 12.3815L9.55341 14.8141C9.37819 14.8977 9.30371 15.1076 9.38743 15.2828C9.47101 15.458 9.68077 15.5324 9.85599 15.4488L13.1365 13.8843C13.7603 14.2006 13.9226 14.5209 13.8271 15.2057C13.5297 17.3207 14.3694 18.835 15.1261 19.7328C16.288 21.1113 18.0976 22.0004 19.8484 22.0533C21.5959 22.1066 23.3355 20.6187 23.8089 18.6659C23.8899 18.3313 23.9297 18.0033 23.9297 17.6845C23.9297 16.1721 23.0339 14.8711 21.4067 14.0947L17.0521 12.0168L21.4769 9.90654C23.1042 9.13005 24 7.82904 24 6.31629C24 5.99749 23.9602 5.66918 23.879 5.33454C23.4056 3.3814 21.666 1.89326 19.9187 1.94665ZM21.104 14.7293C23.4789 15.8624 23.309 17.7438 23.1256 18.5002C22.7343 20.1147 21.2738 21.3933 19.8698 21.3504C18.3124 21.3034 16.7008 20.5099 15.6637 19.2796C14.9992 18.4913 14.262 17.1615 14.5234 15.3032C14.6361 14.4954 14.4495 13.9475 13.8897 13.525L15.2703 12.8665C15.2756 12.8642 15.281 12.8621 15.2862 12.8595C15.2881 12.8586 15.2896 12.8574 15.2915 12.8564L16.2355 12.4062L21.104 14.7293ZM23.1958 5.5002C23.3791 6.25662 23.5493 8.1386 21.1742 9.27185L16.0931 11.6951C16.0877 11.6975 16.0825 11.7001 16.0772 11.7027L15.2888 12.0788L14.3135 10.1286C14.5947 9.75898 14.6773 9.30077 14.5923 8.69754C14.3312 6.84031 15.0678 5.51056 15.7319 4.72245C16.7691 3.49151 18.3816 2.69721 19.9402 2.6494C21.3439 2.60656 22.8044 3.8854 23.1958 5.5002Z" fill="white"/>
<path d="M16.2436 6.15448C15.7786 6.99655 15.7265 7.96846 16.0887 9.04302C16.2166 9.42266 16.4405 9.68943 16.7363 9.81454C16.9332 9.89784 17.2571 9.95451 17.6823 9.75135L20.3449 8.47668C21.5641 7.89252 22.0448 6.97405 22.0447 6.12186C22.0447 5.77629 21.9657 5.44147 21.8247 5.14451C21.5711 4.61014 21.1347 4.20124 20.5959 3.99321C20.0007 3.76343 19.3475 3.80116 18.7071 4.10234C17.5153 4.66203 16.6865 5.3524 16.2436 6.15448ZM21.1896 5.44611C21.545 6.19475 21.3276 7.22614 20.0412 7.84255L17.379 9.11704C17.2273 9.18951 17.1032 9.20629 17.0102 9.16696C16.9065 9.12309 16.8159 8.99938 16.7549 8.81849L16.7549 8.81844C16.6236 8.42854 16.5576 8.05944 16.5576 7.71027C16.5576 6.48687 17.3672 5.50826 19.0061 4.73876C19.9978 4.27235 20.8551 4.74157 21.1896 5.44611Z" fill="white"/>
<path d="M13.2314 12.0846C13.2314 12.0693 13.2304 12.0539 13.2283 12.0384C13.2031 11.8459 13.0265 11.7103 12.834 11.7356L12.7837 11.7422C12.5912 11.7675 12.4556 11.9442 12.4809 12.1366C12.5062 12.3291 12.6828 12.4647 12.8753 12.4393L12.9256 12.4327C13.1025 12.4095 13.2314 12.2584 13.2314 12.0846Z" fill="white"/>
</svg>
