<svg width="25" height="24" viewBox="0 0 25 24" fill="none" xmlns="http://www.w3.org/2000/svg">
<path d="M0.1813 14.5296C0.435988 13.3445 0.962502 12.2366 1.71833 11.2954C2.48024 10.3489 3.47445 9.59847 4.70096 9.04418C4.85829 8.97282 4.89719 8.90171 4.87604 8.73661C4.35907 4.73346 7.07422 0.921999 10.9891 0.149126C11.9843 -0.0506585 13.0087 -0.0496949 14.0036 0.151961C14.9984 0.353617 15.9441 0.752 16.7865 1.32427C17.6289 1.89653 18.3513 2.63143 18.9125 3.48681C19.4736 4.3422 19.8623 5.30125 20.0564 6.30898C20.7475 9.85224 18.8601 13.4772 15.571 14.9122C15.3802 14.9956 15.299 15.0675 15.3242 15.3138C15.5747 17.7557 14.8622 19.8738 13.1844 21.6515C13.0684 21.7746 13.0974 21.8166 13.2158 21.903C17.2083 24.824 22.8693 22.792 24.0645 17.874C24.794 14.8721 23.5538 11.8899 20.9775 10.225C20.9435 10.2029 20.9068 10.1844 20.8739 10.1603C20.6901 10.0265 20.64 9.82001 20.7475 9.64506C20.855 9.47011 21.058 9.41549 21.2581 9.53212C21.596 9.7301 21.9155 9.95837 22.213 10.2142C23.0053 10.8917 23.6305 11.6608 24.0888 12.5215C24.5506 13.3945 24.8445 14.3483 24.9547 15.3322C24.9737 15.5003 25.0916 16.6142 24.8492 17.7901C24.3704 20.1115 22.4829 22.6936 19.5849 23.6217C19.1733 23.7536 16.8754 24.4495 14.3868 23.4173C13.7669 23.1597 13.1848 22.8174 12.6567 22.3998C12.6153 22.3589 12.5606 22.3345 12.5028 22.3312C12.4206 22.3312 12.3606 22.3895 12.3465 22.4003C11.5001 23.0422 10.6029 23.4895 9.65491 23.7423C8.58767 24.027 7.66098 24.0622 6.63556 23.9146C5.98097 23.8196 3.76624 23.4109 1.99748 21.4461C1.17065 20.5244 0.574237 19.4155 0.258233 18.2125C-0.0577701 17.0095 -0.084152 15.7473 0.1813 14.5318V14.5296ZM7.62547 23.2546C9.19339 23.2362 10.5561 22.7992 11.7758 21.9143C11.8862 21.8341 11.9518 21.7891 11.8164 21.6459C10.1386 19.8693 9.42828 17.7508 9.67995 15.3098C9.70427 15.0638 9.62062 14.9951 9.4312 14.908C7.26 13.9088 5.81416 12.2582 5.12406 9.94353C5.05987 9.72798 4.99981 9.70805 4.80017 9.80008C2.10763 11.039 0.481848 13.8916 0.770968 16.892C1.11772 20.4938 4.11859 23.2512 7.62547 23.2546ZM19.4587 7.84932C19.4478 7.36286 19.4206 6.95415 19.3486 6.54717C18.6582 2.63482 14.8727 0.0531626 11.0531 0.894194C7.58219 1.65698 5.22497 4.92367 5.5727 8.48046C5.58948 8.6527 5.62133 8.71175 5.82048 8.665C8.1901 8.10768 10.3637 8.54345 12.3239 10.01C12.4564 10.1084 12.5344 10.1244 12.6728 10.0151C13.3797 9.45956 14.1814 9.04004 15.038 8.77745C16.4069 8.35095 17.786 8.31297 19.1754 8.66353C19.3578 8.70929 19.4252 8.67952 19.4288 8.48981C19.4342 8.25138 19.4509 8.01295 19.4587 7.84932ZM10.3521 16.2107C10.3786 18.1206 11.038 19.7682 12.3482 21.1488C12.4593 21.266 12.5201 21.295 12.647 21.1594C14.1478 19.5561 14.8112 17.6614 14.6098 15.4587C14.5969 15.3182 14.5644 15.2759 14.4238 15.313C13.16 15.6505 11.8312 15.6498 10.5677 15.3108C10.4386 15.2769 10.4034 15.3135 10.3939 15.4462C10.3756 15.7006 10.3474 15.953 10.3521 16.2107ZM17.3238 9.17336C15.8162 9.17656 14.453 9.62808 13.2245 10.5119C13.0786 10.6165 13.0811 10.6706 13.2039 10.7976C14.103 11.7192 14.7534 12.8589 15.0927 14.1076C15.13 14.2424 15.1608 14.2944 15.3145 14.2215C17.2965 13.2821 18.5994 11.7575 19.2158 9.63005C19.2598 9.47848 19.2229 9.4332 19.0833 9.39728C18.5053 9.25333 17.921 9.16647 17.3238 9.17287V9.17336ZM9.83436 14.2838C9.84822 14.2675 9.85625 14.2621 9.85868 14.2552C10.2327 12.9093 10.878 11.7208 11.8618 10.7314C11.9591 10.633 11.8915 10.5988 11.8234 10.5496C10.024 9.24546 8.05101 8.87637 5.9051 9.40195C5.7665 9.43591 5.74802 9.48881 5.78546 9.62341C5.94711 10.2171 6.18414 10.787 6.49063 11.319C7.28432 12.6784 8.39849 13.6665 9.83315 14.2833L9.83436 14.2838ZM12.4967 14.8182C13.1017 14.8298 13.6933 14.7375 14.2799 14.5938C14.4258 14.5576 14.4501 14.5045 14.4099 14.3623C14.0771 13.1679 13.4842 12.1288 12.622 11.2454C12.5376 11.1591 12.489 11.1359 12.3919 11.2358C11.535 12.1075 10.9152 13.1884 10.5925 14.3738C10.5468 14.5384 10.6132 14.5653 10.7384 14.5953C11.315 14.738 11.8988 14.8298 12.4955 14.8177L12.4967 14.8182Z" fill="white"/>
</svg>
